<svg viewBox="0 0 96 96" xmlns="http://www.w3.org/2000/svg">
      <!-- 背景圆 -->
      <circle cx="48" cy="48" r="42" fill="#F5F1E8" stroke="#A8B58A" stroke-width="1.8"/>

      <!-- 微卷长发后层 -->
      <path d="M28 67
               C21 54, 24 34, 31 25
               C37 16, 51 13, 63 21
               C76 30, 75 51, 68 67
               C64 76, 59 80, 55 82
               C58 71, 56 58, 53 47
               C48 53, 39 52, 34 47
               C32 58, 31 72, 34 82
               C31 80, 29 74, 28 67Z"
            fill="#2C241D"/>

      <!-- 头发高光线 -->
      <path d="M35 31 C41 24, 53 23, 61 31"
            fill="none" stroke="#5A4634" stroke-width="1.4" stroke-linecap="round" opacity="0.8"/>
      <path d="M31 42 C27 52, 27 64, 31 73"
            fill="none" stroke="#5A4634" stroke-width="1.3" stroke-linecap="round" opacity="0.65"/>
      <path d="M65 42 C69 52, 69 64, 65 73"
            fill="none" stroke="#5A4634" stroke-width="1.3" stroke-linecap="round" opacity="0.65"/>
      <path d="M38 25 C36 35, 34 42, 30 48"
            fill="none" stroke="#6B523C" stroke-width="1.2" stroke-linecap="round" opacity="0.55"/>
      <path d="M58 25 C60 35, 62 42, 66 48"
            fill="none" stroke="#6B523C" stroke-width="1.2" stroke-linecap="round" opacity="0.55"/>

      <!-- 脸 -->
      <path d="M32 42
               C32 30, 39 23, 48 23
               C57 23, 64 30, 64 42
               C64 55, 57 63, 48 63
               C39 63, 32 55, 32 42Z"
            fill="#F0D3B7"/>

      <!-- 刘海 -->
      <path d="M30 39
               C33 28, 39 22, 48 22
               C57 22, 63 28, 66 39
               C59 36, 53 30, 48 27
               C43 31, 38 36, 30 39Z"
            fill="#2C241D"/>
      <path d="M48 24 C46 30, 43 35, 38 38"
            fill="none" stroke="#4B382A" stroke-width="1.4" stroke-linecap="round"/>
      <path d="M49 24 C52 31, 56 35, 62 38"
            fill="none" stroke="#4B382A" stroke-width="1.4" stroke-linecap="round"/>

      <!-- 耳朵 -->
      <circle cx="31.5" cy="44" r="3.2" fill="#F0D3B7"/>
      <circle cx="64.5" cy="44" r="3.2" fill="#F0D3B7"/>

      <!-- 眼睛 -->
      <circle cx="42" cy="44" r="2.1" fill="#2C2A26"/>
      <circle cx="54" cy="44" r="2.1" fill="#2C2A26"/>
      <circle cx="42.7" cy="43.2" r="0.55" fill="#FFFFFF"/>
      <circle cx="54.7" cy="43.2" r="0.55" fill="#FFFFFF"/>

      <!-- 腮红 -->
      <circle cx="37" cy="50" r="3" fill="#D99C8C" opacity="0.45"/>
      <circle cx="59" cy="50" r="3" fill="#D99C8C" opacity="0.45"/>

      <!-- 微笑 -->
      <path d="M43 52 C45 55, 51 55, 53 52"
            fill="none" stroke="#2C2A26" stroke-width="1.7" stroke-linecap="round"/>

      <!-- 身体 / 衣服 -->
      <path d="M28 83
               C31 70, 38 64, 48 64
               C58 64, 65 70, 68 83Z"
            fill="#DCC290"/>

      <!-- 手臂 -->
      <path d="M35 68 C39 75, 43 78, 48 78"
            fill="none" stroke="#F0D3B7" stroke-width="6" stroke-linecap="round"/>
      <path d="M61 68 C57 75, 53 78, 48 78"
            fill="none" stroke="#F0D3B7" stroke-width="6" stroke-linecap="round"/>

      <!-- 小花盆 -->
      <path d="M40 72 H56 L53 84 H43Z" fill="#B99562"/>
      <rect x="39" y="70" width="18" height="4" rx="1" fill="#9B7A4F"/>

      <!-- 小植物 -->
      <path d="M48 70 C48 62, 48 56, 48 51"
            fill="none" stroke="#6E8B56" stroke-width="2" stroke-linecap="round"/>
      <path d="M48 61 C43 56, 39 57, 37 62 C42 64, 46 64, 48 61Z"
            fill="#6E8B56"/>
      <path d="M49 56 C54 51, 59 52, 61 57 C56 60, 52 60, 49 56Z"
            fill="#7A8B5C"/>
    </svg>
